<svg width="28" height="28" viewBox="0 0 28 28" fill="none" xmlns="http://www.w3.org/2000/svg">
<path fill-rule="evenodd" clip-rule="evenodd" d="M14.2027 2.2666H14.0878C13.0946 2.2666 12.2672 2.2666 11.611 2.35498C10.9172 2.44778 10.2908 2.65327 9.78809 3.15593C9.28432 3.65971 9.07884 4.28611 8.98604 4.97879C8.92307 5.45053 8.90428 6.57628 8.89987 7.54184C6.66604 7.61586 5.32375 7.87658 4.39244 8.809C3.09766 10.1027 3.09766 12.1863 3.09766 16.3523C3.09766 20.5184 3.09766 22.602 4.39244 23.8956C5.68611 25.1904 7.76969 25.1904 11.9358 25.1904H16.3548C20.5209 25.1904 22.6044 25.1904 23.8981 23.8956C25.1929 22.602 25.1929 20.5184 25.1929 16.3523C25.1929 12.1863 25.1929 10.1027 23.8981 8.809C22.9668 7.87658 21.6245 7.61586 19.3907 7.54294C19.3863 6.57628 19.3686 5.45053 19.3045 4.9799C19.2117 4.28611 19.0062 3.65971 18.5025 3.15704C17.9998 2.65327 17.3734 2.44778 16.6796 2.35498C16.0234 2.2666 15.1948 2.2666 14.2027 2.2666ZM17.7335 7.51643C17.728 6.5807 17.7126 5.57426 17.6628 5.19974C17.5932 4.69045 17.475 4.47171 17.3314 4.32809C17.1878 4.18447 16.969 4.06626 16.4586 3.99666C15.9262 3.92595 15.2103 3.92374 14.1453 3.92374C13.0803 3.92374 12.3644 3.92595 11.8308 3.99776C11.3215 4.06626 11.1028 4.18447 10.9591 4.32919C10.8155 4.47281 10.6973 4.69045 10.6277 5.19974C10.578 5.57536 10.5614 6.5807 10.557 7.51643C10.989 7.51422 11.4497 7.51422 11.9358 7.51422H16.3548C16.842 7.51422 17.3016 7.51422 17.7335 7.51643ZM14.1453 11.1047C14.365 11.1047 14.5758 11.192 14.7312 11.3474C14.8865 11.5028 14.9738 11.7135 14.9738 11.9333V11.9443C16.1769 12.247 17.1834 13.196 17.1834 14.5107C17.1834 14.7304 17.0961 14.9412 16.9407 15.0966C16.7853 15.252 16.5745 15.3392 16.3548 15.3392C16.135 15.3392 15.9243 15.252 15.7689 15.0966C15.6135 14.9412 15.5262 14.7304 15.5262 14.5107C15.5262 14.0864 15.0556 13.4987 14.1453 13.4987C13.235 13.4987 12.7643 14.0864 12.7643 14.5107C12.7643 14.9349 13.235 15.5237 14.1453 15.5237C15.6754 15.5237 17.1834 16.5843 17.1834 18.194C17.1834 19.5086 16.1769 20.4565 14.9738 20.7603V20.7714C14.9738 20.9911 14.8865 21.2019 14.7312 21.3573C14.5758 21.5126 14.365 21.5999 14.1453 21.5999C13.9255 21.5999 13.7148 21.5126 13.5594 21.3573C13.404 21.2019 13.3167 20.9911 13.3167 20.7714V20.7603C12.1136 20.4576 11.1072 19.5086 11.1072 18.194C11.1072 17.9742 11.1945 17.7635 11.3499 17.6081C11.5052 17.4527 11.716 17.3654 11.9358 17.3654C12.1555 17.3654 12.3663 17.4527 12.5216 17.6081C12.677 17.7635 12.7643 17.9742 12.7643 18.194C12.7643 18.6182 13.235 19.2059 14.1453 19.2059C15.0556 19.2059 15.5262 18.6182 15.5262 18.194C15.5262 17.7697 15.0556 17.1809 14.1453 17.1809C12.6152 17.1809 11.1072 16.1203 11.1072 14.5107C11.1072 13.196 12.1136 12.247 13.3167 11.9443V11.9333C13.3167 11.7135 13.404 11.5028 13.5594 11.3474C13.7148 11.192 13.9255 11.1047 14.1453 11.1047Z" fill="#212222"/>
</svg>
