<svg width="30" height="30" viewBox="0 0 30 30" fill="none" xmlns="http://www.w3.org/2000/svg">
<path fill-rule="evenodd" clip-rule="evenodd" d="M17.0362 25.59L16.3587 26.735C15.755 27.755 14.2463 27.755 13.6413 26.735L12.9638 25.59C12.4388 24.7025 12.1762 24.2575 11.7537 24.0125C11.3313 23.7662 10.8 23.7575 9.7375 23.7387C8.1675 23.7125 7.18375 23.6162 6.35875 23.2738C5.60046 22.9597 4.91146 22.4993 4.33109 21.9189C3.75072 21.3385 3.29034 20.6495 2.97625 19.8913C2.5 18.7437 2.5 17.2875 2.5 14.375V13.125C2.5 9.03375 2.5 6.9875 3.42125 5.485C3.9363 4.644 4.64306 3.93681 5.48375 3.42125C6.9875 2.5 9.035 2.5 13.125 2.5H16.875C20.9662 2.5 23.0125 2.5 24.5163 3.42125C25.3568 3.93646 26.0635 4.6432 26.5788 5.48375C27.5 6.9875 27.5 9.035 27.5 13.125V14.375C27.5 17.2875 27.5 18.7437 27.025 19.8913C26.7108 20.6497 26.2502 21.3387 25.6696 21.9191C25.089 22.4995 24.3998 22.9598 23.6413 23.2738C22.8162 23.6162 21.8325 23.7112 20.2625 23.7387C19.2 23.7575 18.6688 23.7662 18.2463 24.0125C17.8238 24.2575 17.5612 24.7013 17.0362 25.59ZM10 14.6875C9.75136 14.6875 9.5129 14.7863 9.33709 14.9621C9.16127 15.1379 9.0625 15.3764 9.0625 15.625C9.0625 15.8736 9.16127 16.1121 9.33709 16.2879C9.5129 16.4637 9.75136 16.5625 10 16.5625H16.875C17.1236 16.5625 17.3621 16.4637 17.5379 16.2879C17.7137 16.1121 17.8125 15.8736 17.8125 15.625C17.8125 15.3764 17.7137 15.1379 17.5379 14.9621C17.3621 14.7863 17.1236 14.6875 16.875 14.6875H10ZM9.0625 11.25C9.0625 11.0014 9.16127 10.7629 9.33709 10.5871C9.5129 10.4113 9.75136 10.3125 10 10.3125H20C20.2486 10.3125 20.4871 10.4113 20.6629 10.5871C20.8387 10.7629 20.9375 11.0014 20.9375 11.25C20.9375 11.4986 20.8387 11.7371 20.6629 11.9129C20.4871 12.0887 20.2486 12.1875 20 12.1875H10C9.75136 12.1875 9.5129 12.0887 9.33709 11.9129C9.16127 11.7371 9.0625 11.4986 9.0625 11.25Z" fill="#FCFAF7"/>
</svg>
