<svg width="28" height="28" viewBox="0 0 28 28" fill="none" xmlns="http://www.w3.org/2000/svg">
<g clip-path="url(#clip0_532_9451)">
<path d="M7.14743 15.2136C7.41285 15.1208 7.70365 15.1327 7.96059 15.2469C8.21753 15.3611 8.42126 15.5689 8.53028 15.8281C8.6393 16.0873 8.6454 16.3783 8.54734 16.6418C8.44928 16.9053 8.25444 17.1215 8.00252 17.2463L7.8832 17.2971C7.53789 17.4192 7.22833 17.6252 6.98233 17.8966C6.73633 18.1679 6.5616 18.4961 6.47386 18.8517C6.38611 19.2073 6.3881 19.5792 6.47963 19.9338C6.57116 20.2884 6.74937 20.6148 6.99825 20.8835C7.24713 21.1522 7.55887 21.3549 7.90547 21.4733C8.25206 21.5917 8.62264 21.6221 8.98391 21.5618C9.34518 21.5016 9.68581 21.3525 9.97519 21.1279C10.2646 20.9034 10.4936 20.6105 10.6418 20.2756L10.7048 20.1176C10.75 19.977 10.823 19.8469 10.9194 19.7349C11.0158 19.623 11.1337 19.5316 11.266 19.466C11.3984 19.4004 11.5426 19.3621 11.69 19.3532C11.8375 19.3443 11.9852 19.3651 12.1245 19.4143C12.2638 19.4635 12.3918 19.5401 12.5009 19.6397C12.61 19.7392 12.6981 19.8596 12.7599 19.9938C12.8217 20.128 12.856 20.2732 12.8606 20.4208C12.8653 20.5685 12.8404 20.7155 12.7872 20.8534C12.5386 21.5576 12.1155 22.1872 11.5576 22.6837C10.9996 23.1801 10.325 23.5271 9.59672 23.6922C8.8684 23.8573 8.11011 23.8352 7.39265 23.628C6.67518 23.4207 6.02192 23.035 5.49385 22.507C4.96578 21.9789 4.58012 21.3256 4.37286 20.6082C4.1656 19.8907 4.1435 19.1324 4.30862 18.4041C4.47375 17.6758 4.82072 17.0012 5.31714 16.4432C5.81356 15.8853 6.44325 15.4623 7.14743 15.2136ZM21.1403 15.2136C21.8445 15.4623 22.4742 15.8853 22.9706 16.4432C23.4671 17.0012 23.814 17.6758 23.9792 18.4041C24.1443 19.1324 24.1222 19.8907 23.9149 20.6082C23.7077 21.3256 23.322 21.9789 22.7939 22.507C22.2659 23.035 21.6126 23.4207 20.8951 23.628C20.1777 23.8352 19.4194 23.8573 18.6911 23.6922C17.9627 23.5271 17.2881 23.1801 16.7302 22.6837C16.1723 22.1872 15.7492 21.5576 15.5005 20.8534C15.4078 20.588 15.4197 20.2972 15.5339 20.0402C15.648 19.7833 15.8559 19.5796 16.1151 19.4705C16.3742 19.3615 16.6652 19.3554 16.9287 19.4535C17.1922 19.5515 17.4084 19.7464 17.5333 19.9983L17.5841 20.1176C17.7062 20.4629 17.9122 20.7725 18.1835 21.0185C18.4549 21.2645 18.7831 21.4392 19.1387 21.527C19.4943 21.6147 19.8661 21.6127 20.2208 21.5212C20.5754 21.4296 20.9017 21.2514 21.1705 21.0026C21.4392 20.7537 21.6418 20.4419 21.7602 20.0953C21.8786 19.7487 21.9091 19.3782 21.8488 19.0169C21.7885 18.6556 21.6394 18.315 21.4149 18.0256C21.1904 17.7362 20.8975 17.5072 20.5626 17.359L20.4046 17.2971C20.2678 17.2488 20.1418 17.1741 20.0339 17.0771C19.926 16.9801 19.8382 16.8628 19.7757 16.7319C19.6493 16.4675 19.6331 16.1638 19.7307 15.8875C19.8282 15.6112 20.0316 15.3849 20.2959 15.2586C20.5603 15.1322 20.864 15.116 21.1403 15.2136ZM9.73699 7.9354L9.85078 8.01273L12.7872 10.2974C13.1497 10.5793 13.5909 10.7413 14.0496 10.761C14.5084 10.7806 14.9618 10.6567 15.347 10.4067L15.5005 10.2974L18.437 8.01383C18.6401 7.85562 18.8922 7.77334 19.1495 7.7812C19.4069 7.78906 19.6534 7.88658 19.8466 8.05689C20.0397 8.22721 20.1672 8.45963 20.2072 8.714C20.2471 8.96836 20.197 9.2287 20.0654 9.45003L19.9881 9.56382L17.7034 12.5003C17.4215 12.8627 17.2595 13.3039 17.2399 13.7627C17.2203 14.2214 17.3441 14.6749 17.5941 15.06L17.7034 15.2136L19.987 18.15C20.1452 18.3532 20.2275 18.6052 20.2196 18.8626C20.2117 19.1199 20.1142 19.3665 19.9439 19.5596C19.7736 19.7527 19.5412 19.8803 19.2868 19.9202C19.0324 19.9602 18.7721 19.91 18.5508 19.7784L18.437 19.7011L15.5005 17.4165C15.1381 17.1345 14.6969 16.9725 14.2381 16.9529C13.7794 16.9333 13.3259 17.0571 12.9408 17.3071L12.7872 17.4165L9.85078 19.7C9.64764 19.8582 9.39561 19.9405 9.13824 19.9326C8.88087 19.9248 8.63434 19.8273 8.44122 19.6569C8.24811 19.4866 8.12056 19.2542 8.0806 18.9998C8.04064 18.7455 8.09078 18.4851 8.22236 18.2638L8.2997 18.15L10.5843 15.2136C10.8663 14.8512 11.0283 14.4099 11.0479 13.9512C11.0675 13.4924 10.9437 13.039 10.6937 12.6538L10.5843 12.5003L8.3008 9.56382C8.14946 9.36977 8.06723 9.13076 8.06716 8.88467C8.0671 8.63859 8.14919 8.39953 8.30043 8.20541C8.45167 8.01128 8.66339 7.87321 8.90202 7.81309C9.14065 7.75297 9.39252 7.77424 9.61768 7.87353L9.73699 7.9354ZM19.6677 3.91406C20.7105 3.91359 21.7199 4.28192 22.5174 4.95392C23.3148 5.62591 23.8489 6.55828 24.0252 7.58609C24.2015 8.61391 24.0086 9.67096 23.4806 10.5703C22.9527 11.4696 22.1237 12.1532 21.1403 12.5003C20.8749 12.593 20.5841 12.5811 20.3272 12.4669C20.0703 12.3528 19.8665 12.1449 19.7575 11.8857C19.6485 11.6266 19.6424 11.3356 19.7404 11.0721C19.8385 10.8086 20.0333 10.5924 20.2853 10.4675L20.4046 10.4167C20.7499 10.2946 21.0595 10.0886 21.3055 9.81727C21.5514 9.54592 21.7262 9.2177 21.8139 8.8621C21.9017 8.50651 21.8997 8.13469 21.8081 7.78005C21.7166 7.42541 21.5384 7.09907 21.2895 6.83036C21.0406 6.56164 20.7289 6.35898 20.3823 6.24058C20.0357 6.12217 19.6651 6.09174 19.3039 6.15201C18.9426 6.21229 18.602 6.36138 18.3126 6.58589C18.0232 6.8104 17.7941 7.1033 17.646 7.43825L17.5841 7.59623C17.4865 7.87253 17.2832 8.09876 17.0188 8.22514C16.7545 8.35152 16.4507 8.36771 16.1744 8.27014C15.8981 8.17257 15.6719 7.96924 15.5455 7.70487C15.4192 7.44051 15.403 7.13676 15.5005 6.86046C15.8053 5.99878 16.3696 5.25275 17.1159 4.72508C17.8622 4.19742 18.7537 3.91408 19.6677 3.91406ZM8.62008 3.91406C9.53406 3.91408 10.4256 4.19742 11.1719 4.72508C11.9181 5.25275 12.4825 5.99878 12.7872 6.86046C12.88 7.12588 12.8681 7.41669 12.7539 7.67362C12.6397 7.93056 12.4319 8.13429 12.1727 8.24331C11.9135 8.35233 11.6226 8.35843 11.359 8.26037C11.0955 8.16231 10.8793 7.96747 10.7545 7.71555L10.7037 7.59623C10.5816 7.25092 10.3756 6.94136 10.1042 6.69536C9.83289 6.44936 9.50467 6.27464 9.14907 6.18689C8.79348 6.09915 8.42165 6.10113 8.06702 6.19266C7.71238 6.28419 7.38604 6.4624 7.11732 6.71128C6.84861 6.96016 6.64595 7.2719 6.52754 7.6185C6.40914 7.96509 6.37871 8.33567 6.43898 8.69694C6.49926 9.05821 6.64835 9.39884 6.87286 9.68822C7.09737 9.9776 7.39027 10.2067 7.72522 10.3548L7.8832 10.4178C8.15152 10.5213 8.36893 10.7253 8.48923 10.9865C8.60952 11.2477 8.62323 11.5455 8.52743 11.8166C8.43162 12.0878 8.23387 12.3109 7.97618 12.4385C7.7185 12.5662 7.42119 12.5883 7.14743 12.5003C6.16535 12.1521 5.33785 11.4681 4.81099 10.5692C4.28414 9.67019 4.09181 8.614 4.26795 7.58701C4.44409 6.56002 4.97738 5.62828 5.77368 4.95625C6.56998 4.28422 7.5781 3.9151 8.62008 3.91406Z" fill="#212222"/>
</g>
<defs>
<clipPath id="clip0_532_9451">
<rect width="26.5143" height="26.5143" fill="white" transform="translate(0.886719 0.600098)"/>
</clipPath>
</defs>
</svg>
