<svg width="30" height="30" viewBox="0 0 30 30" fill="none" xmlns="http://www.w3.org/2000/svg">
<path d="M27.5 10.2025V10.2937C27.5 11.3687 27.5 11.9075 27.2412 12.3475C26.9825 12.7875 26.5113 13.0487 25.5713 13.5725L24.58 14.1225C25.2625 11.8125 25.4912 9.32996 25.575 7.20746L25.5875 6.93121L25.59 6.86621C26.4037 7.14871 26.8612 7.35996 27.1462 7.75496C27.5 8.24621 27.5 8.89871 27.5 10.2025ZM2.5 10.2025V10.2937C2.5 11.3687 2.5 11.9075 2.75875 12.3475C3.0175 12.7875 3.48875 13.0487 4.42875 13.5725L5.42125 14.1225C4.7375 11.8125 4.50875 9.32996 4.425 7.20746L4.4125 6.93121L4.41125 6.86621C3.59625 7.14871 3.13875 7.35996 2.85375 7.75496C2.5 8.24621 2.5 8.89996 2.5 10.2025Z" fill="#FCFAF7"/>
<path fill-rule="evenodd" clip-rule="evenodd" d="M15.0005 2.50029C17.2305 2.50029 19.0667 2.69654 20.4717 2.93404C21.8955 3.17404 22.6067 3.29404 23.2017 4.02654C23.7967 4.75904 23.7642 5.55029 23.7017 7.13279C23.4867 12.569 22.3142 19.3578 15.938 19.9578V24.3753H17.7255C18.0143 24.3755 18.2942 24.4757 18.5175 24.6589C18.7409 24.8421 18.8938 25.097 18.9505 25.3803L19.188 26.5628H22.5005C22.7491 26.5628 22.9876 26.6616 23.1634 26.8374C23.3392 27.0132 23.438 27.2517 23.438 27.5003C23.438 27.7489 23.3392 27.9874 23.1634 28.1632C22.9876 28.339 22.7491 28.4378 22.5005 28.4378H7.50045C7.25181 28.4378 7.01336 28.339 6.83754 28.1632C6.66173 27.9874 6.56295 27.7489 6.56295 27.5003C6.56295 27.2517 6.66173 27.0132 6.83754 26.8374C7.01336 26.6616 7.25181 26.5628 7.50045 26.5628H10.813L11.0505 25.3803C11.1071 25.097 11.26 24.8421 11.4834 24.6589C11.7067 24.4757 11.9866 24.3755 12.2755 24.3753H14.063V19.9578C7.68795 19.3578 6.51545 12.5678 6.30045 7.13279C6.2367 5.55029 6.20545 4.75779 6.80045 4.02654C7.3942 3.29404 8.10545 3.17404 9.5292 2.93404C11.3377 2.63764 13.1678 2.49255 15.0005 2.50029ZM16.1905 7.74904L16.068 7.52904C15.593 6.67529 15.3555 6.25029 15.0005 6.25029C14.6455 6.25029 14.408 6.67529 13.933 7.52904L13.8105 7.74904C13.6755 7.99154 13.608 8.11154 13.503 8.19154C13.3967 8.27154 13.2655 8.30154 13.003 8.36029L12.7655 8.41529C11.843 8.62404 11.3817 8.72779 11.2717 9.08029C11.1617 9.43404 11.4767 9.80154 12.1055 10.5365L12.268 10.7265C12.4467 10.9353 12.5367 11.039 12.5767 11.169C12.6167 11.299 12.603 11.4378 12.5767 11.7165L12.5517 11.9703C12.4567 12.9515 12.4092 13.4428 12.6955 13.6603C12.983 13.8778 13.4155 13.679 14.2792 13.2815L14.5017 13.179C14.748 13.0665 14.8705 13.0103 15.0005 13.0103C15.1305 13.0103 15.253 13.0665 15.4992 13.179L15.7217 13.2815C16.5855 13.6803 17.018 13.8778 17.3055 13.6603C17.593 13.4428 17.5442 12.9515 17.4492 11.9703L17.4242 11.7165C17.398 11.4378 17.3842 11.299 17.4242 11.169C17.4642 11.0403 17.5542 10.9353 17.733 10.7265L17.8955 10.5365C18.5242 9.80154 18.8392 9.43404 18.7292 9.08029C18.6192 8.72779 18.158 8.62404 17.2355 8.41529L16.998 8.36029C16.7355 8.30154 16.6042 8.27279 16.498 8.19154C16.393 8.11154 16.3255 7.99154 16.1905 7.74904Z" fill="#FCFAF7"/>
</svg>
