<svg width="12" height="12" viewBox="0 0 12 12" fill="none" xmlns="http://www.w3.org/2000/svg">
<path d="M11.25 4.78125C11.25 8.0625 6.38484 10.7184 6.17766 10.8281C6.12305 10.8575 6.06201 10.8729 6 10.8729C5.93799 10.8729 5.87695 10.8575 5.82234 10.8281C5.61516 10.7184 0.75 8.0625 0.75 4.78125C0.750868 4.01073 1.05734 3.27202 1.60218 2.72718C2.14702 2.18234 2.88573 1.87587 3.65625 1.875C4.62422 1.875 5.47172 2.29125 6 2.99484C6.52828 2.29125 7.37578 1.875 8.34375 1.875C9.11427 1.87587 9.85298 2.18234 10.3978 2.72718C10.9427 3.27202 11.2491 4.01073 11.25 4.78125Z" fill="#FF0000"/>
</svg>
