<svg width="31" height="34" viewBox="0 0 31 34" fill="none" xmlns="http://www.w3.org/2000/svg">
<path d="M14.9119 23.9117C14.5196 23.8034 14.2146 23.4939 14.1115 23.0995L13.9225 22.377C13.7377 21.6704 14.3863 21.0287 15.0894 21.2225L28.4102 24.8963C29.2196 25.1195 29.3598 26.2096 28.6333 26.6311L27.7977 27.1157C27.533 27.2692 27.2178 27.3099 26.9229 27.2284L14.9119 23.9117Z" fill="white"/>
<path d="M16.1597 28.6911C15.7655 28.5833 15.459 28.2726 15.3561 27.8765L15.1653 27.1422C14.9818 26.4362 15.6297 25.7957 16.332 25.989L23.2366 27.8894C24.0472 28.1125 24.1869 29.2045 23.4587 29.6251L22.6227 30.1081C22.3591 30.2604 22.0458 30.3009 21.7523 30.2206L16.1597 28.6911Z" fill="white"/>
<path d="M18.0252 32.774C17.4213 33.1259 16.6488 32.8037 16.4727 32.1263C16.268 31.339 16.9901 30.6246 17.7734 30.8395C18.6763 31.0873 18.8346 32.3025 18.0252 32.774Z" fill="white"/>
<path d="M8.82194 19.9501C8.71949 19.5556 8.8345 19.1362 9.12389 18.8495L9.65396 18.3244C10.1724 17.8108 11.0515 18.0526 11.2354 18.7595L14.7199 32.1529C14.9317 32.9668 14.0594 33.6335 13.3318 33.2138L12.4951 32.7313C12.23 32.5784 12.0372 32.3253 11.9602 32.0287L8.82194 19.9501Z" fill="white"/>
<path d="M5.31584 23.4225C5.21194 23.0266 5.32735 22.6054 5.61831 22.318L6.1576 21.7853C6.67623 21.2731 7.55389 21.515 7.73788 22.221L9.54727 29.1615C9.75971 29.9763 8.88558 30.6435 8.15785 30.2221L7.3223 29.7382C7.05886 29.5857 6.86722 29.3341 6.78987 29.0393L5.31584 23.4225Z" fill="white"/>
<path d="M2.71942 27.0816C2.11324 26.7336 2.00555 25.9023 2.50306 25.4108C3.08132 24.8395 4.06 25.1088 4.26583 25.8959C4.50311 26.8031 3.53163 27.548 2.71942 27.0816Z" fill="white"/>
<path d="M9.2168 12.6864C9.50665 12.4002 9.92668 12.2903 10.3192 12.3981L11.0381 12.5954C11.7414 12.7884 11.9719 13.672 11.4528 14.185L1.61629 23.9051C1.01861 24.4957 0.00613062 24.0722 0.00508446 23.2312L0.00390719 22.264C0.00351488 21.9576 0.12598 21.6638 0.343842 21.4486L9.2168 12.6864Z" fill="white"/>
<path d="M4.46274 11.3808C4.75298 11.0927 5.17484 10.9822 5.56878 11.0909L6.29887 11.2925C7.00103 11.4863 7.23066 12.3687 6.71242 12.8813L1.61739 17.9214C1.01926 18.513 0.00540184 18.0882 0.00585953 17.2461L0.00638207 16.2793C0.00651284 15.9745 0.128194 15.6824 0.344355 15.4679L4.46274 11.3808Z" fill="white"/>
<path d="M5.55965e-06 10.9572C-0.00221752 10.2573 0.662613 9.74826 1.33621 9.93408C2.11919 10.1501 2.37569 11.1339 1.79828 11.706C1.13253 12.3655 0.00294787 11.8951 5.55965e-06 10.9572Z" fill="white"/>
<path d="M15.7173 9.39398C16.1096 9.50225 16.4146 9.81178 16.5177 10.2061L16.7067 10.9286C16.8914 11.6352 16.2428 12.277 15.5398 12.0831L2.219 8.40935C1.40954 8.18613 1.26936 7.09603 1.99591 6.67463L2.8314 6.18994C3.09614 6.03641 3.41136 5.99581 3.70624 6.07721L15.7173 9.39398Z" fill="white"/>
<path d="M14.4693 4.61573C14.8634 4.72355 15.1699 5.03426 15.2729 5.43036L15.4637 6.16463C15.6471 6.87072 14.9992 7.51116 14.2969 7.31782L7.39232 5.41748C6.58174 5.19432 6.44202 4.1024 7.17021 3.68171L8.00628 3.19872C8.26984 3.0465 8.58317 3.00596 8.87668 3.08626L14.4693 4.61573Z" fill="white"/>
<path d="M12.6035 0.532697C13.2074 0.180817 13.9799 0.503084 14.156 1.1804C14.3607 1.96777 13.6386 2.68216 12.8553 2.46724C11.9524 2.21943 11.7941 1.00419 12.6035 0.532697Z" fill="white"/>
<path d="M21.7955 13.393C21.8979 13.7876 21.7829 14.2069 21.4935 14.4936L20.9634 15.0187C20.445 15.5324 19.5659 15.2905 19.382 14.5836L15.8975 1.19024C15.6857 0.376395 16.558 -0.290267 17.2856 0.129371L18.1224 0.611917C18.3874 0.764812 18.5802 1.01797 18.6572 1.31454L21.7955 13.3937V13.393Z" fill="white"/>
<path d="M25.3019 9.92001C25.4058 10.3159 25.2904 10.7372 24.9995 11.0246L24.4602 11.5572C23.9415 12.0695 23.0639 11.8275 22.8799 11.1216L21.0705 4.18101C20.8581 3.36625 21.7322 2.699 22.4599 3.12047L23.2955 3.60431C23.5589 3.75685 23.7505 4.00845 23.8279 4.30321L25.3019 9.92001Z" fill="white"/>
<path d="M27.8992 6.26049C28.5053 6.60853 28.613 7.43983 28.1155 7.93133C27.5373 8.50259 26.5586 8.23327 26.3528 7.44624C26.1155 6.53896 27.0869 5.7941 27.8992 6.26049Z" fill="white"/>
<path d="M21.3729 20.646C21.083 20.9322 20.663 21.0421 20.2705 20.9344L19.5515 20.737C18.8483 20.544 18.6178 19.6605 19.1369 19.1475L28.9733 9.4274C29.571 8.83672 30.5835 9.26021 30.5845 10.1013L30.5857 11.0684C30.5861 11.3749 30.4636 11.6687 30.2458 11.8838L21.3729 20.646Z" fill="white"/>
<path d="M26.1284 21.9507C25.8382 22.2388 25.4163 22.3493 25.0224 22.2406L24.2922 22.039C23.5901 21.8452 23.3605 20.9628 23.8787 20.4502L28.9738 15.4101C29.5719 14.8185 30.5858 15.2433 30.5853 16.0854L30.5848 17.0522C30.5846 17.357 30.463 17.6491 30.2468 17.8636L26.1284 21.9507Z" fill="white"/>
<path d="M30.5908 22.3749C30.593 23.0748 29.9282 23.5838 29.2546 23.398C28.4716 23.1819 28.2151 22.1982 28.7925 21.6261C29.4582 20.9666 30.5879 21.4369 30.5908 22.3749Z" fill="white"/>
</svg>