<svg width="28" height="28" viewBox="0 0 28 28" fill="none" xmlns="http://www.w3.org/2000/svg">
<path d="M18.5643 7.37109H9.72623C7.96822 7.37109 6.28222 8.06946 5.03912 9.31256C3.79602 10.5557 3.09766 12.2417 3.09766 13.9997C3.09766 15.7577 3.79602 17.4437 5.03912 18.6868C6.28222 19.9299 7.96822 20.6282 9.72623 20.6282H18.5643C20.3223 20.6282 22.0083 19.9299 23.2514 18.6868C24.4945 17.4437 25.1929 15.7577 25.1929 13.9997C25.1929 12.2417 24.4945 10.5557 23.2514 9.31256C22.0083 8.06946 20.3223 7.37109 18.5643 7.37109ZM13.0405 15.1044H10.831V17.314H8.62147V15.1044H6.41194V12.8949H8.62147V10.6854H10.831V12.8949H13.0405V15.1044ZM16.9072 17.314C16.4677 17.314 16.0462 17.1394 15.7354 16.8286C15.4246 16.5178 15.25 16.0963 15.25 15.6568C15.25 15.2173 15.4246 14.7958 15.7354 14.485C16.0462 14.1743 16.4677 13.9997 16.9072 13.9997C17.3467 13.9997 17.7682 14.1743 18.079 14.485C18.3897 14.7958 18.5643 15.2173 18.5643 15.6568C18.5643 16.0963 18.3897 16.5178 18.079 16.8286C17.7682 17.1394 17.3467 17.314 16.9072 17.314ZM20.2215 13.9997C19.782 13.9997 19.3605 13.8251 19.0497 13.5143C18.7389 13.2035 18.5643 12.782 18.5643 12.3425C18.5643 11.903 18.7389 11.4815 19.0497 11.1707C19.3605 10.86 19.782 10.6854 20.2215 10.6854C20.661 10.6854 21.0825 10.86 21.3932 11.1707C21.704 11.4815 21.8786 11.903 21.8786 12.3425C21.8786 12.782 21.704 13.2035 21.3932 13.5143C21.0825 13.8251 20.661 13.9997 20.2215 13.9997Z" fill="#212222"/>
</svg>
