<svg width="13" height="14" viewBox="0 0 13 14" fill="none" xmlns="http://www.w3.org/2000/svg">
<g clip-path="url(#clip0_532_9474)">
<path d="M1.08203 12.4165C1.08203 11.2672 1.53858 10.165 2.35124 9.35238C3.16389 8.53972 4.26609 8.08317 5.41536 8.08317C6.56464 8.08317 7.66684 8.53972 8.47949 9.35238C9.29215 10.165 9.7487 11.2672 9.7487 12.4165H1.08203ZM5.41536 7.5415C3.61974 7.5415 2.16536 6.08713 2.16536 4.2915C2.16536 2.49588 3.61974 1.0415 5.41536 1.0415C7.21099 1.0415 8.66536 2.49588 8.66536 4.2915C8.66536 6.08713 7.21099 7.5415 5.41536 7.5415ZM10.832 9.70817H12.9987V10.7915H10.832V9.70817ZM9.20703 6.99984H12.9987V8.08317H9.20703V6.99984ZM10.2904 4.2915H12.9987V5.37484H10.2904V4.2915Z" fill="black"/>
</g>
<defs>
<clipPath id="clip0_532_9474">
<rect width="13" height="13" fill="white" transform="translate(0 0.5)"/>
</clipPath>
</defs>
</svg>
