<svg width="27" height="26" viewBox="0 0 27 26" fill="none" xmlns="http://www.w3.org/2000/svg">
<g clip-path="url(#clip0_532_9463)">
<path d="M13.1992 0C6.01956 0 0.199219 5.82045 0.199219 13C0.199219 20.1801 6.01966 26 13.1992 26C20.3794 26 26.1992 20.1801 26.1992 13C26.1992 5.82095 20.3794 0.000710938 13.199 0.000710938L13.1992 0ZM19.1608 18.7499C18.928 19.1317 18.4281 19.2528 18.0462 19.0184C14.9939 17.154 11.1516 16.7317 6.6265 17.7656C6.41696 17.8133 6.19705 17.7758 6.01513 17.6614C5.83321 17.547 5.70417 17.3651 5.65637 17.1555C5.63256 17.0518 5.62944 16.9444 5.64718 16.8395C5.66493 16.7345 5.7032 16.6341 5.75981 16.544C5.81641 16.4539 5.89023 16.3758 5.97705 16.3143C6.06387 16.2527 6.16197 16.2089 6.26575 16.1853C11.2179 15.0539 15.4656 15.541 18.8923 17.6352C19.2742 17.8696 19.3952 18.368 19.1608 18.7499ZM20.752 15.2101C20.4585 15.6869 19.8345 15.8376 19.358 15.5441C15.8636 13.3963 10.537 12.7742 6.40387 14.0288C5.86783 14.1907 5.30172 13.8887 5.13902 13.3535C4.97753 12.8175 5.27978 12.2524 5.81491 12.0895C10.536 10.6569 16.4053 11.3508 20.4183 13.8168C20.8948 14.1103 21.0454 14.7342 20.752 15.2101ZM20.8886 11.5241C16.6988 9.03541 9.78611 8.80648 5.78587 10.0208C5.14348 10.2156 4.46413 9.85288 4.26954 9.2105C4.07484 8.56781 4.43712 7.88897 5.08001 7.69366C9.67195 6.29962 17.3058 6.56906 22.1295 9.43272C22.7086 9.77559 22.8979 10.5219 22.5549 11.0989C22.2134 11.6767 21.4651 11.8672 20.8892 11.5241H20.8886Z" fill="#1ED760"/>
</g>
<defs>
<clipPath id="clip0_532_9463">
<rect width="26" height="26" fill="white" transform="translate(0.199219)"/>
</clipPath>
</defs>
</svg>
