<svg width="30" height="30" viewBox="0 0 30 30" fill="none" xmlns="http://www.w3.org/2000/svg">
<path fill-rule="evenodd" clip-rule="evenodd" d="M4.33 4.33C2.5 6.1625 2.5 9.1075 2.5 15C2.5 20.8925 2.5 23.8387 4.33 25.6688C6.1625 27.5 9.1075 27.5 15 27.5C20.8925 27.5 23.8387 27.5 25.6688 25.6688C27.5 23.84 27.5 20.8925 27.5 15C27.5 9.1075 27.5 6.16125 25.6688 4.33C23.84 2.5 20.8925 2.5 15 2.5C9.1075 2.5 6.16125 2.5 4.33 4.33ZM17.1875 12.5C17.1875 13.0175 17.6075 13.4375 18.125 13.4375H18.9875L16.4713 15.9537C16.4422 15.9829 16.4077 16.0059 16.3698 16.0217C16.3318 16.0374 16.2911 16.0456 16.25 16.0456C16.2089 16.0456 16.1682 16.0374 16.1302 16.0217C16.0923 16.0059 16.0578 15.9829 16.0287 15.9537L14.0463 13.9713C13.6361 13.5613 13.0799 13.3311 12.5 13.3311C11.9201 13.3311 11.3639 13.5613 10.9537 13.9713L8.0875 16.8375C7.99539 16.9233 7.92151 17.0268 7.87027 17.1418C7.81903 17.2568 7.79148 17.381 7.78926 17.5068C7.78704 17.6327 7.8102 17.7578 7.85735 17.8745C7.9045 17.9912 7.97468 18.0973 8.0637 18.1863C8.15273 18.2753 8.25877 18.3455 8.3755 18.3927C8.49224 18.4398 8.61727 18.463 8.74315 18.4607C8.86903 18.4585 8.99317 18.431 9.10817 18.3797C9.22317 18.3285 9.32667 18.2546 9.4125 18.1625L12.2787 15.2963C12.3078 15.2671 12.3423 15.2441 12.3802 15.2283C12.4182 15.2126 12.4589 15.2044 12.5 15.2044C12.5411 15.2044 12.5818 15.2126 12.6198 15.2283C12.6577 15.2441 12.6922 15.2671 12.7213 15.2963L14.7037 17.2787C15.1139 17.6887 15.6701 17.9189 16.25 17.9189C16.8299 17.9189 17.3861 17.6887 17.7963 17.2787L20.3125 14.7638V15.625C20.3125 15.8736 20.4113 16.1121 20.5871 16.2879C20.7629 16.4637 21.0014 16.5625 21.25 16.5625C21.4986 16.5625 21.7371 16.4637 21.9129 16.2879C22.0887 16.1121 22.1875 15.8736 22.1875 15.625V12.5C22.1875 12.2514 22.0887 12.0129 21.9129 11.8371C21.7371 11.6613 21.4986 11.5625 21.25 11.5625H18.125C17.8764 11.5625 17.6379 11.6613 17.4621 11.8371C17.2863 12.0129 17.1875 12.2514 17.1875 12.5Z" fill="#FCFAF7"/>
</svg>
